<?xml version="1.0" encoding="UTF-8"?>
<svg id="Layer_1" xmlns="http://www.w3.org/2000/svg" version="1.1" viewBox="0 0 24 24">
  <!-- Generator: Adobe Illustrator 29.5.0, SVG Export Plug-In . SVG Version: 2.1.0 Build 137)  -->
  <defs>
    <style>
      .st0 {
        fill: #fff;
      }

      .st1 {
        fill: none;
        stroke: #fff;
        stroke-linecap: round;
        stroke-linejoin: round;
        stroke-width: .8px;
      }
    </style>
  </defs>
  <path class="st0" d="M2,8.2C-1.1,0,8.8-.8,13.6,3.2c3.2,2.4,5.7,5.7,7.6,9.2.9,1.8,1.7,3.7,1.9,5.8.6,6.4-5.2,7.1-9.1,3.1-.4-.4.1-1.1.6-.8,3.2,2,7.1,2.9,6.9-2.2-.3-6.5-7-15.8-13.6-17C3.4.6.4,3.5,2.2,8.1c0,.1-.1.2-.2,0h0Z"/>
  <polygon class="st1" points="8.9 15.1 11.2 15.5 12.5 13.6 13.3 15.8 15.7 16 14.6 17.9 16 19.9 13.4 19.9 11.6 21.7 10.7 19.4 7.8 18.8 9.8 17.2 8.9 15.1"/>
</svg>